<svg width="60" height="60" viewBox="0 0 60 60" fill="none" xmlns="http://www.w3.org/2000/svg">
<circle cx="30" cy="30" r="30" fill="black"/>
<path d="M21.432 25.648C20.744 25.648 20.128 25.784 19.584 26.056C19.056 26.328 18.608 26.72 18.24 27.232C17.872 27.728 17.592 28.336 17.4 29.056C17.224 29.776 17.136 30.584 17.136 31.48C17.136 32.696 17.28 33.736 17.568 34.6C17.872 35.448 18.344 36.096 18.984 36.544C19.624 36.992 20.44 37.216 21.432 37.216C22.136 37.216 22.832 37.136 23.52 36.976C24.224 36.816 24.984 36.592 25.8 36.304V39.352C25.048 39.656 24.304 39.88 23.568 40.024C22.832 40.168 22.008 40.24 21.096 40.24C19.336 40.24 17.88 39.88 16.728 39.16C15.592 38.424 14.752 37.4 14.208 36.088C13.664 34.76 13.392 33.216 13.392 31.456C13.392 30.16 13.568 28.976 13.92 27.904C14.272 26.816 14.784 25.88 15.456 25.096C16.144 24.312 16.984 23.704 17.976 23.272C18.984 22.84 20.136 22.624 21.432 22.624C22.28 22.624 23.128 22.736 23.976 22.96C24.84 23.168 25.664 23.456 26.448 23.824L25.272 26.776C24.632 26.472 23.984 26.208 23.328 25.984C22.688 25.76 22.056 25.648 21.432 25.648ZM39.2333 22.624V24.736C41.1053 24.784 42.5933 25.112 43.6973 25.72C44.8173 26.312 45.6173 27.08 46.0973 28.024C46.5933 28.968 46.8413 30 46.8413 31.12C46.8413 31.84 46.7133 32.576 46.4573 33.328C46.2173 34.08 45.8013 34.776 45.2093 35.416C44.6333 36.04 43.8573 36.552 42.8813 36.952C41.9053 37.352 40.6893 37.568 39.2333 37.6V40.24H35.9693V37.6C34.4973 37.568 33.2653 37.352 32.2733 36.952C31.2973 36.552 30.5213 36.032 29.9453 35.392C29.3693 34.752 28.9613 34.064 28.7213 33.328C28.4813 32.576 28.3613 31.84 28.3613 31.12C28.3613 30.288 28.4973 29.496 28.7693 28.744C29.0413 27.992 29.4733 27.32 30.0653 26.728C30.6573 26.136 31.4413 25.664 32.4173 25.312C33.3933 24.96 34.5773 24.768 35.9693 24.736V22.624H39.2333ZM35.9693 27.568C34.9293 27.616 34.0973 27.8 33.4733 28.12C32.8653 28.424 32.4253 28.832 32.1533 29.344C31.8973 29.856 31.7693 30.44 31.7693 31.096C31.7693 31.816 31.9133 32.448 32.2013 32.992C32.5053 33.52 32.9613 33.944 33.5693 34.264C34.1933 34.568 34.9933 34.744 35.9693 34.792V27.568ZM39.2333 34.792C40.2093 34.744 41.0013 34.568 41.6093 34.264C42.2333 33.944 42.6893 33.52 42.9773 32.992C43.2813 32.448 43.4333 31.816 43.4333 31.096C43.4333 30.44 43.2973 29.856 43.0253 29.344C42.7693 28.832 42.3293 28.424 41.7053 28.12C41.0973 27.8 40.2733 27.616 39.2333 27.568V34.792Z" fill="white"/>
<path d="M0.5 36.5C44.18 44.18 53.5 21.3 52.5 9.5V50.5" stroke="white"/>
</svg>
