<svg width="175" height="236" viewBox="0 0 175 236" fill="none" xmlns="http://www.w3.org/2000/svg">
<path d="M77.332 72.0562C81.2902 69.7462 82.3092 64.1225 79.6081 59.4939C76.9061 54.8662 71.5084 52.9878 67.5492 55.2987C63.5911 57.6087 62.5721 63.2325 65.2731 67.861C67.9742 72.4896 73.3729 74.3672 77.332 72.0562Z" fill="#52C280"/>
<path d="M89.8747 79.1851C92.174 83.1493 97.7959 84.1861 102.431 81.4987C107.068 78.8103 108.963 73.4173 106.664 69.4531C104.364 65.487 98.7434 64.4511 94.1079 67.1385C89.4707 69.8259 87.5764 75.22 89.8747 79.1851Z" fill="#52C280"/>
<path d="M24.3524 109.078C19.8314 109.83 16.8798 114.726 17.7613 120.013C18.642 125.299 23.0207 128.972 27.5417 128.219C32.0637 127.466 35.0135 122.57 34.1337 117.285C33.2521 111.998 28.8735 108.324 24.3524 109.078Z" fill="#52C280"/>
<path d="M40.0595 169.758C41.5471 165.424 38.6436 160.5 33.5756 158.761C28.5056 157.022 23.1922 159.127 21.7047 163.461C20.2171 167.796 23.1195 172.72 28.1885 174.46C33.2575 176.199 38.5718 174.095 40.0595 169.758Z" fill="#52C280"/>
<path d="M51.4529 67.0757C55.0698 78.3857 51.1508 89.7445 42.7003 92.4459C34.2507 95.1483 24.4672 88.1692 20.8513 76.8583C17.2354 65.5475 21.1535 54.1895 29.605 51.4872C38.0555 48.7858 47.837 55.7648 51.4529 67.0757Z" fill="#52C280"/>
<path d="M30.5461 86.601C28.9461 84.8211 27.6306 82.5577 26.7978 79.9538C24.3577 72.3226 27.0017 64.6591 32.7042 62.8357C36.4598 61.6347 40.6054 63.2689 43.6956 66.7069C45.2955 68.4868 46.612 70.7492 47.4439 73.3522C49.884 80.9834 47.2399 88.6488 41.5384 90.4713C37.7819 91.6713 33.6354 90.038 30.5461 86.601Z" fill="#49A076"/>
<path d="M76.2943 164.184C66.3157 157.75 62.1222 146.489 66.9295 139.032C71.7377 131.576 83.7253 130.748 93.7039 137.182C103.685 143.618 107.878 154.878 103.07 162.334C98.2624 169.79 86.2749 170.619 76.2943 164.184Z" fill="#52C280"/>
<path d="M73.6057 155.87C69.4709 151.27 68.2076 145.367 70.9288 141.146C74.4084 135.75 83.0821 135.15 90.3042 139.806C91.8769 140.822 93.251 142.002 94.4026 143.283C98.5383 147.884 99.8024 153.788 97.0804 158.008C93.6027 163.403 84.928 164.002 77.706 159.346C76.1323 158.332 74.7573 157.151 73.6057 155.87Z" fill="#49A076"/>
<path d="M107.297 117.901C95.4808 119.07 85.1936 112.861 84.3195 104.032C83.4463 95.2037 92.3177 87.0988 104.135 85.9287C115.951 84.7595 126.239 90.9696 127.113 99.7967C127.986 108.627 119.115 116.732 107.297 117.901Z" fill="#52C280"/>
<path d="M90.3259 108.682C89.0406 107.252 88.2222 105.547 88.0355 103.664C87.4453 97.6941 93.4436 92.2128 101.434 91.4233C106.905 90.882 111.892 92.6801 114.682 95.7839C115.966 97.2128 116.786 98.9191 116.972 100.801C117.563 106.77 111.564 112.253 103.573 113.042C98.1023 113.583 93.1157 111.785 90.3259 108.682Z" fill="#49A076"/>
<path d="M110.602 48.4857C106.241 59.7163 96.0585 66.239 87.8601 63.0557C79.6609 59.8715 76.5492 48.1862 80.9099 36.9556C85.2716 25.7241 95.4532 19.2024 103.652 22.3856C111.851 25.5699 114.964 37.2543 110.602 48.4857Z" fill="#52C280"/>
<path d="M86.9599 57.2494C83.8225 53.7589 83.036 47.5366 85.3789 41.5027C88.3847 33.7632 95.4003 29.268 101.051 31.462C102.296 31.9456 103.372 32.7139 104.259 33.7005C107.397 37.1911 108.183 43.4152 105.839 49.4481C102.834 57.1868 95.8178 61.6829 90.1678 59.488C88.9218 59.0052 87.8468 58.236 86.9599 57.2494Z" fill="#49A076"/>
<path d="M92.7523 48.599C92.7514 48.5999 92.6675 48.8097 92.4931 49.23C89.8863 55.5227 67.4252 107.539 27.9508 142.999C11.3588 157.915 -8.20751 169.892 -30.5336 174.427C-31.2552 174.574 -31.7222 175.277 -31.5747 175.999C-31.4281 176.721 -30.7241 177.187 -30.0025 177.041C-7.06718 172.377 12.8995 160.114 29.7334 144.982C51.0883 125.784 67.4365 101.957 78.4699 82.9198C89.5014 63.8824 95.2096 49.6334 95.228 49.59C95.5014 48.9069 95.1698 48.1311 94.4857 47.8567C93.8025 47.5833 93.0257 47.9158 92.7523 48.599Z" fill="#511841"/>
<path d="M33.2196 74.2733L33.2655 74.3503C33.787 75.2297 38.4962 83.4765 40.5589 95.4628C42.6201 107.459 42.071 123.136 32.1462 139.158C31.7578 139.785 31.951 140.607 32.5771 140.994C33.2022 141.382 34.0244 141.19 34.4128 140.563C45.0814 123.358 45.365 106.391 42.9709 93.8182C40.5795 81.2328 35.5481 72.9745 35.4971 72.8858C35.1143 72.2565 34.2931 72.057 33.6646 72.4408C33.0362 72.8246 32.8367 73.6439 33.2196 74.2733Z" fill="#511841"/>
<path d="M100.391 99.6564C100.253 99.667 75.5142 99.4793 53.4889 115.419C52.8928 115.851 52.7606 116.685 53.1924 117.281C53.6242 117.877 54.4574 118.01 55.0545 117.577C65.6638 109.886 77.017 106.062 85.716 104.171C90.0641 103.227 93.7463 102.764 96.333 102.538C97.6259 102.425 98.6447 102.371 99.3352 102.346C99.6815 102.332 99.9462 102.327 100.121 102.324L100.316 102.323L100.372 102.323C101.109 102.327 101.71 101.735 101.715 100.998C101.72 100.262 101.126 99.6606 100.391 99.6564Z" fill="#511841"/>
<path d="M16.5903 155.665L16.6964 155.586C17.8468 154.727 28.2337 147.207 41.393 143.135C47.9718 141.095 55.2279 139.919 62.3556 140.799C69.4868 141.684 76.4911 144.579 82.7643 150.795C83.2871 151.313 84.1323 151.309 84.6502 150.787C85.1681 150.264 85.1658 149.42 84.6421 148.901C77.742 142.046 69.8171 138.886 61.9431 138.068C50.1207 136.84 38.4198 140.742 29.6484 144.896C20.8774 149.058 15.0266 153.506 14.9765 153.542C14.391 153.988 14.2766 154.824 14.7231 155.411C15.1677 155.997 16.0048 156.111 16.5903 155.665Z" fill="#511841"/>
<path d="M42.438 72.2925L38.9239 84.5048L31.6697 80.8941C31.0103 80.5653 30.2095 80.8333 29.8827 81.4928C29.5539 82.1523 29.8219 82.953 30.4804 83.2808L40.6014 88.3197L45.0017 73.0305C45.2046 72.3228 44.7965 71.5835 44.0888 71.3806C43.3812 71.1758 42.6428 71.5849 42.438 72.2925Z" fill="#511841"/>
<path d="M85.9299 47.4272L89.5193 59.1653L101.071 53.9667C101.743 53.6644 102.042 52.875 101.739 52.2027C101.437 51.5314 100.648 51.2326 99.9771 51.5348L91.185 55.4917L88.48 46.6482C88.2655 45.9428 87.519 45.5471 86.8155 45.7617C86.111 45.9772 85.7144 46.7228 85.9299 47.4272Z" fill="#511841"/>
<path d="M98.009 93.3407L88.2742 102.091L98.5223 108.837C99.1371 109.242 99.9639 109.07 100.369 108.456C100.773 107.841 100.603 107.015 99.9883 106.609L92.6271 101.764L99.7916 95.324C100.339 94.832 100.384 93.9884 99.8919 93.441C99.3999 92.8937 98.5563 92.8487 98.009 93.3407Z" fill="#511841"/>
<path d="M83.9858 139.965L73.303 142.301L75.6799 153.121C75.837 153.841 76.5483 154.295 77.2676 154.138C77.987 153.979 78.4421 153.268 78.2831 152.549L76.4802 144.336L84.5551 142.571C85.2744 142.414 85.7305 141.703 85.5734 140.984C85.4163 140.264 84.7051 139.808 83.9858 139.965Z" fill="#511841"/>
<path d="M74.255 89.6554L96.715 77.1476C97.3581 76.79 97.5893 75.978 97.2308 75.3339C96.8723 74.6917 96.0613 74.4597 95.4172 74.8181L72.9572 87.3259C72.3141 87.6835 72.0829 88.4955 72.4414 89.1396C72.7989 89.7827 73.6108 90.0139 74.255 89.6554Z" fill="#511841"/>
<path d="M80.9316 77.4351L75.7579 66.671C75.4392 66.0072 74.6431 65.7278 73.9794 66.0465C73.3147 66.3661 73.0353 67.1622 73.3549 67.827L78.5276 78.5901C78.8463 79.2538 79.6433 79.5342 80.307 79.2155C80.9699 78.8958 81.2493 78.0997 80.9316 77.4351Z" fill="#511841"/>
<path d="M24.6283 120.151L30.3652 141.804C30.5539 142.517 31.2837 142.942 31.9953 142.752C32.7068 142.564 33.1319 141.834 32.9432 141.122L27.2063 119.469C27.0176 118.757 26.2877 118.334 25.5762 118.521C24.8637 118.71 24.4396 119.441 24.6283 120.151Z" fill="#511841"/>
<path d="M8.46119 162.185L27.9453 167.099C28.6589 167.279 29.3844 166.845 29.5641 166.132C29.7437 165.418 29.3112 164.694 28.5966 164.513L9.11448 159.599C8.40083 159.419 7.67529 159.852 7.49565 160.566C7.31502 161.281 7.74754 162.005 8.46119 162.185Z" fill="#511841"/>
</svg>
