<svg width="150" height="229" viewBox="0 0 150 229" fill="none" xmlns="http://www.w3.org/2000/svg">
<path d="M67.4366 90.0548C65.4157 86.2459 60.1677 85.0739 55.7137 87.4369C51.2604 89.8009 49.2891 94.8037 51.3108 98.6136C53.3318 102.422 58.5798 103.594 63.0338 101.231C67.4879 98.8684 69.4584 93.8647 67.4366 90.0548Z" fill="#52C280"/>
<path d="M74.6157 78.5351C78.4299 76.5244 79.6186 71.2788 77.2686 66.8189C74.9178 62.358 69.9201 60.3711 66.1059 62.3817C62.2899 64.3922 61.1021 69.637 63.4521 74.0969C65.802 78.5586 70.8007 80.5447 74.6157 78.5351Z" fill="#52C280"/>
<path d="M100.223 141.269C100.759 145.548 105.249 148.509 110.252 147.881C115.255 147.255 118.875 143.278 118.339 138.999C117.803 134.72 113.313 131.76 108.311 132.386C103.308 133.014 99.6864 136.99 100.223 141.269Z" fill="#52C280"/>
<path d="M157.866 128.813C153.847 127.249 149.108 129.791 147.281 134.49C145.453 139.19 147.229 144.265 151.247 145.828C155.266 147.392 160.005 144.85 161.834 140.151C163.661 135.452 161.886 130.376 157.866 128.813Z" fill="#52C280"/>
<path d="M61.7695 114.194C72.5394 111.224 83.0685 115.34 85.2864 123.387C87.5052 131.434 80.5719 140.365 69.8011 143.334C59.0304 146.303 48.5021 142.187 46.2834 134.139C44.0655 126.092 50.9987 117.162 61.7695 114.194Z" fill="#52C280"/>
<path d="M79.3291 134.591C77.5949 136.027 75.4172 137.178 72.9375 137.862C65.6707 139.865 58.5671 137.088 57.07 131.657C56.0839 128.081 57.778 124.246 61.1276 121.472C62.8618 120.036 65.0387 118.884 67.5174 118.201C74.7842 116.198 81.8896 118.975 83.3859 124.405C84.3711 127.982 82.6778 131.818 79.3291 134.591Z" fill="#49A076"/>
<path d="M154.005 94.537C147.576 103.673 136.83 107.186 130.003 102.383C123.177 97.5794 122.855 86.2786 129.283 77.1428C135.713 68.0045 146.458 64.4916 153.284 69.2955C160.111 74.0986 160.434 85.3994 154.005 94.537Z" fill="#52C280"/>
<path d="M146.086 96.7481C141.604 100.46 136.007 101.423 132.143 98.7041C127.203 95.2277 126.969 87.0508 131.621 80.4387C132.635 78.9989 133.797 77.752 135.045 76.7182C139.528 73.0054 145.126 72.0418 148.99 74.7614C153.93 78.2361 154.163 86.4137 149.511 93.0258C148.497 94.4665 147.334 95.7142 146.086 96.7481Z" fill="#49A076"/>
<path d="M111.675 63.6306C112.324 74.783 106.095 84.2174 97.7621 84.7031C89.4298 85.188 82.1482 76.5396 81.498 65.3862C80.8487 54.2338 87.0782 44.7986 95.4097 44.3127C103.744 43.828 111.025 52.4764 111.675 63.6306Z" fill="#52C280"/>
<path d="M102.362 79.2336C100.969 80.3874 99.3354 81.0919 97.558 81.1958C91.9232 81.5234 86.9986 75.6758 86.5606 68.1338C86.26 62.9701 88.1401 58.3508 91.1641 55.8462C92.5563 54.6932 94.1916 53.9871 95.968 53.884C101.602 53.5555 106.527 59.404 106.965 66.9461C107.266 72.1097 105.386 76.7291 102.362 79.2336Z" fill="#49A076"/>
<path d="M46.5449 57.8813C56.9366 62.4082 62.6808 72.229 59.3762 79.8149C56.0707 87.4017 44.9671 89.8821 34.5755 85.3553C24.183 80.8274 18.4396 71.0077 21.7442 63.4217C25.0497 55.8349 36.1524 53.3535 46.5449 57.8813Z" fill="#52C280"/>
<path d="M53.8835 80.4402C50.4827 83.2568 44.6033 83.7593 39.0202 81.3271C31.8588 78.2068 27.9 71.4405 30.1777 66.2117C30.6797 65.0597 31.4429 64.0773 32.4042 63.2812C35.805 60.4646 41.6861 59.9623 47.2683 62.3952C54.4288 65.5146 58.3885 72.2819 56.11 77.5097C55.6088 78.6627 54.8448 79.644 53.8835 80.4402Z" fill="#49A076"/>
<path d="M45.972 74.6656C45.9728 74.6666 46.1668 74.7534 46.5553 74.9333C52.3717 77.6235 100.416 100.719 132.249 139.177C145.639 155.343 156.154 174.193 159.568 195.354C159.678 196.038 160.321 196.503 161.006 196.392C161.69 196.282 162.155 195.638 162.045 194.954C158.534 173.215 147.765 153.978 134.181 137.577C116.946 116.771 95.1692 100.496 77.6926 89.3986C60.2159 78.3035 47.0379 72.3949 46.9978 72.376C46.366 72.093 45.6241 72.3753 45.3401 73.0079C45.0571 73.6397 45.3402 74.3826 45.972 74.6656Z" fill="#511841"/>
<path d="M67.8418 131.608L67.9159 131.568C68.7625 131.111 76.6944 126.998 88.041 125.515C99.3972 124.034 114.114 125.147 128.798 135.087C129.373 135.476 130.152 135.326 130.54 134.752C130.929 134.179 130.779 133.399 130.205 133.01C114.437 122.326 98.4968 121.413 86.5867 123.185C74.6644 124.954 66.7094 129.37 66.6242 129.415C66.0179 129.75 65.7991 130.515 66.136 131.12C66.4729 131.726 67.2355 131.944 67.8418 131.608Z" fill="#511841"/>
<path d="M94.2607 69.4285C94.2654 69.5581 93.1474 92.8075 107.293 114.12C107.677 114.697 108.456 114.853 109.033 114.469C109.609 114.086 109.766 113.308 109.382 112.73C102.555 102.464 99.3925 91.6453 97.9466 83.3956C97.2239 79.2721 96.9289 75.7929 96.8152 73.3526C96.7578 72.1328 96.7465 71.1731 96.7488 70.5229C96.7491 70.1969 96.7547 69.9479 96.7585 69.7834L96.765 69.6005L96.7665 69.5472C96.7986 68.8544 96.2649 68.267 95.5721 68.2349C94.8802 68.2019 94.2927 68.7374 94.2607 69.4285Z" fill="#511841"/>
<path d="M143.724 150.339L143.653 150.236C142.89 149.122 136.216 139.072 132.888 126.546C131.222 120.284 130.392 113.418 131.49 106.75C132.593 100.08 135.582 93.6058 141.664 87.9451C142.171 87.4733 142.2 86.6786 141.728 86.1719C141.256 85.6651 140.463 85.6351 139.955 86.1077C133.248 92.3334 129.976 99.6631 128.907 107.034C127.303 118.101 130.526 129.25 134.097 137.654C137.675 146.058 141.635 151.727 141.667 151.776C142.063 152.343 142.845 152.482 143.413 152.085C143.982 151.689 144.12 150.907 143.724 150.339Z" fill="#511841"/>
<path d="M66.3306 122.867L77.6773 126.635L74.0069 133.317C73.6727 133.925 73.8942 134.688 74.5018 135.02C75.1092 135.354 75.8721 135.133 76.2053 134.526L81.3276 125.204L67.122 120.485C66.4644 120.267 65.7539 120.623 65.5362 121.28C65.3167 121.938 65.6732 122.647 66.3306 122.867Z" fill="#511841"/>
<path d="M44.6106 81.0346L55.782 78.1071L51.3345 67.0495C51.076 66.4069 50.3453 66.095 49.7017 66.3544C49.0591 66.613 48.7482 67.3429 49.0068 67.9855L52.3919 76.4014L43.9753 78.6077C43.3041 78.7825 42.9036 79.4692 43.0786 80.1387C43.2544 80.8092 43.9402 81.2104 44.6106 81.0346Z" fill="#511841"/>
<path d="M88.2328 71.427L96.088 80.9115L102.82 71.5342C103.224 70.9717 103.094 70.1879 102.532 69.7841C101.969 69.3802 101.187 69.5089 100.781 70.0713L95.9462 76.807L90.165 69.8267C89.7233 69.2933 88.932 69.219 88.3987 69.6607C87.8654 70.1024 87.7911 70.8937 88.2328 71.427Z" fill="#511841"/>
<path d="M131.53 86.3845L133.319 96.5162L143.581 94.6935C144.264 94.5732 144.718 93.9218 144.597 93.2397C144.475 92.5573 143.825 92.1024 143.142 92.2245L135.353 93.6068L134.001 85.9486C133.881 85.2664 133.23 84.8105 132.547 84.9308C131.865 85.0512 131.409 85.7023 131.53 86.3845Z" fill="#511841"/>
<path d="M83.8641 93.6174L72.9607 72.027C72.649 71.4088 71.8945 71.1606 71.2754 71.4731C70.6579 71.7857 70.409 72.5393 70.7214 73.1584L81.6249 94.7487C81.9365 95.3669 82.691 95.6151 83.3102 95.3026C83.9284 94.991 84.1766 94.2365 83.8641 93.6174Z" fill="#511841"/>
<path d="M72.6302 86.8757L62.3142 91.3296C61.6781 91.6039 61.3852 92.3417 61.6595 92.9778C61.9346 93.6148 62.6724 93.9078 63.3095 93.6326L73.6246 89.1796C74.2606 88.9052 74.5546 88.1666 74.2802 87.5306C74.0049 86.8953 73.2671 86.6023 72.6302 86.8757Z" fill="#511841"/>
<path d="M110.644 141.431L131.218 136.862C131.895 136.712 132.322 136.042 132.171 135.366C132.021 134.69 131.351 134.262 130.674 134.413L110.101 138.982C109.424 139.132 108.998 139.802 109.148 140.478C109.298 141.155 109.969 141.582 110.644 141.431Z" fill="#511841"/>
<path d="M149.543 158.229L154.905 140.1C155.101 139.436 154.721 138.737 154.057 138.541C153.393 138.345 152.695 138.724 152.498 139.389L147.137 157.517C146.941 158.181 147.321 158.879 147.985 159.076C148.649 159.273 149.347 158.893 149.543 158.229Z" fill="#511841"/>
</svg>
